<?xml version="1.0" encoding="UTF-8" standalone="no"?>
<!DOCTYPE svg PUBLIC "-//W3C//DTD SVG 1.1//EN" "http://www.w3.org/Graphics/SVG/1.1/DTD/svg11.dtd">
<svg xmlns="http://www.w3.org/2000/svg" version="1.1" viewBox="0.00 0.00 406.00 406.00">
<path fill="#000000" d="
  M 137.74 67.73
  A 0.77 0.77 0.0 0 0 137.52 66.83
  C 128.44 59.57 126.56 46.59 133.91 37.86
  C 140.81 29.67 152.98 28.37 161.39 34.99
  A 1.69 1.69 0.0 0 0 163.44 35.03
  Q 175.82 25.92 190.59 21.84
  Q 222.77 12.93 254.06 21.79
  Q 269.60 26.20 281.59 35.24
  A 0.99 0.99 0.0 0 0 282.71 35.29
  C 289.21 31.21 295.70 29.43 302.88 31.97
  C 308.85 34.08 313.90 39.97 314.99 46.69
  Q 316.87 58.24 307.37 66.42
  A 0.70 0.70 0.0 0 0 307.19 67.23
  Q 319.41 93.60 313.17 122.05
  A 5.49 5.26 -43.8 0 0 313.09 123.89
  Q 315.22 140.75 319.20 156.56
  Q 329.11 195.89 333.00 211.72
  C 338.55 234.31 342.49 254.21 344.67 277.01
  C 347.77 309.46 342.14 350.05 315.18 372.42
  Q 309.30 377.30 301.46 379.70
  C 295.46 381.54 288.71 381.23 282.25 381.09
  A 2.52 2.52 0.0 0 0 280.12 382.18
  C 275.87 388.42 269.04 392.49 261.22 390.79
  Q 252.77 388.95 248.52 381.67
  A 1.38 1.37 -14.4 0 0 247.34 380.98
  L 164.59 380.15
  A 1.32 1.29 15.7 0 0 163.48 380.76
  Q 159.32 387.46 150.64 389.40
  C 142.22 391.28 135.90 386.16 131.72 379.49
  A 2.45 2.45 0.0 0 0 129.65 378.35
  C 106.02 378.39 84.17 378.66 61.04 376.89
  Q 47.38 375.85 34.66 370.90
  C 17.38 364.18 10.76 347.11 21.12 331.22
  C 28.49 319.90 42.22 312.98 55.39 309.13
  Q 73.53 303.83 92.70 302.63
  A 1.06 1.06 0.0 0 0 93.70 301.64
  C 94.18 293.35 96.35 283.45 101.46 276.71
  Q 103.59 273.89 104.51 272.44
  A 2.29 2.26 61.7 0 0 104.87 271.21
  Q 105.19 235.10 117.58 201.31
  Q 119.16 196.97 127.22 176.71
  Q 133.83 160.10 135.91 142.75
  Q 136.45 138.26 136.38 134.29
  A 6.13 6.07 -57.6 0 0 135.86 131.92
  Q 130.79 120.45 130.08 109.70
  Q 128.66 88.06 137.74 67.73
  Z
  M 246.26 366.91
  C 247.68 363.56 247.81 359.67 248.61 356.69
  Q 250.69 348.97 253.92 329.71
  C 255.04 323.00 261.38 316.48 268.79 320.05
  A 1.88 1.87 -50.9 0 0 270.75 319.84
  C 276.92 315.07 285.21 317.39 287.52 324.98
  A 1.13 1.10 87.6 0 0 288.34 325.75
  C 297.01 327.68 297.91 335.08 296.38 342.68
  Q 293.39 357.48 286.48 371.42
  A 0.72 0.71 15.3 0 0 287.07 372.45
  Q 301.52 373.50 312.00 363.73
  C 325.47 351.17 333.08 331.88 335.31 313.92
  C 338.02 292.04 335.87 268.60 331.67 246.01
  C 324.93 209.80 312.01 167.52 306.66 138.30
  A 0.45 0.44 55.8 0 0 305.84 138.14
  Q 298.40 150.16 285.11 158.58
  A 3.82 3.80 -30.2 0 1 279.72 157.17
  L 279.61 156.97
  A 4.45 4.44 -30.8 0 1 281.09 151.14
  Q 296.34 141.16 302.63 126.14
  C 309.85 108.93 307.28 88.16 299.48 70.79
  C 286.90 42.77 261.36 28.73 231.52 26.23
  Q 208.40 24.30 187.56 31.77
  Q 163.43 40.41 150.44 61.64
  C 138.77 80.71 134.35 105.53 142.58 126.11
  Q 148.77 141.60 163.97 151.36
  A 4.34 4.33 30.9 0 1 165.42 157.11
  L 165.31 157.30
  A 3.89 3.88 -59.4 0 1 159.84 158.71
  Q 150.70 152.97 145.10 146.04
  A 0.62 0.62 0.0 0 0 144.00 146.34
  Q 141.38 164.68 134.04 182.84
  Q 125.40 204.21 121.91 215.41
  Q 113.09 243.76 113.35 274.86
  A 2.79 2.79 0.0 0 1 112.40 277.00
  Q 106.47 282.25 104.27 290.28
  C 100.08 305.53 101.64 321.72 106.05 336.69
  C 109.37 347.95 115.31 358.63 124.00 366.17
  A 0.40 0.39 -81.3 0 0 124.62 365.71
  C 120.48 356.07 117.25 346.45 116.37 337.19
  Q 115.35 326.44 123.91 323.93
  A 2.25 2.24 6.1 0 0 125.28 322.83
  L 126.75 320.11
  A 3.89 3.79 81.2 0 1 127.37 319.24
  Q 131.96 314.43 139.02 316.53
  C 140.21 316.89 141.09 318.06 142.23 318.51
  A 2.18 2.17 -42.8 0 0 143.65 318.56
  Q 146.25 317.76 147.23 317.67
  C 153.47 317.07 157.62 321.70 158.77 327.51
  Q 159.61 331.79 160.31 337.24
  Q 161.50 346.59 164.70 359.37
  C 165.81 363.76 166.07 366.51 166.00 370.71
  A 0.78 0.78 0.0 0 0 166.78 371.51
  L 237.56 372.22
  A 0.69 0.69 0.0 0 0 238.25 371.40
  Q 234.47 351.82 238.32 331.26
  C 241.83 312.49 251.04 295.30 265.80 282.88
  Q 283.86 267.69 308.62 271.97
  A 4.46 4.45 7.4 0 1 312.30 276.74
  L 312.27 277.15
  A 3.88 3.88 0.0 0 1 307.56 280.61
  C 272.62 272.80 248.78 308.98 245.83 338.72
  C 244.94 347.63 244.65 357.60 245.94 366.87
  A 0.17 0.17 0.0 0 0 246.26 366.91
  Z
  M 140.22 43.61
  C 136.73 48.12 137.26 54.63 141.32 58.66
  A 0.68 0.68 0.0 0 0 142.39 58.53
  Q 145.14 53.91 148.28 49.85
  Q 151.42 45.80 155.20 41.98
  A 0.68 0.68 0.0 0 0 155.07 40.91
  C 150.15 37.98 143.71 39.11 140.22 43.61
  Z
  M 304.57 43.45
  C 301.10 39.03 294.75 37.97 289.92 40.89
  A 0.67 0.67 0.0 0 0 289.80 41.94
  Q 293.55 45.68 296.67 49.65
  Q 299.79 53.63 302.54 58.15
  A 0.67 0.67 0.0 0 0 303.59 58.28
  C 307.56 54.28 308.03 47.86 304.57 43.45
  Z
  M 114.38 369.76
  A 0.31 0.31 0.0 0 0 114.60 369.24
  C 100.53 353.68 93.86 332.52 93.41 311.89
  A 0.82 0.82 0.0 0 0 92.49 311.09
  Q 77.04 312.95 76.96 312.96
  Q 70.35 313.81 59.04 316.82
  C 45.88 320.33 24.42 330.47 24.87 347.05
  C 25.22 359.84 40.55 365.09 50.82 366.88
  Q 63.75 369.13 76.51 369.36
  Q 104.48 369.87 114.38 369.76
  Z
  M 148.65 326.18
  A 1.17 1.17 0.0 0 0 146.89 327.37
  L 147.64 332.02
  A 2.22 2.17 -44.3 0 1 147.62 332.90
  C 146.71 337.23 140.59 337.53 139.59 333.41
  C 138.71 329.79 138.27 325.49 136.23 324.35
  A 2.01 2.00 30.7 0 0 133.57 325.02
  C 132.36 326.92 134.40 330.25 135.94 333.76
  C 137.70 337.74 136.03 341.24 131.35 340.44
  C 128.57 339.96 127.18 334.45 126.47 333.02
  A 1.03 1.02 -37.7 0 0 124.78 332.81
  Q 124.60 333.01 124.51 333.66
  Q 124.15 336.19 125.19 341.07
  Q 128.42 356.27 135.95 370.54
  C 139.28 376.85 145.19 385.24 153.40 379.08
  Q 158.83 375.01 157.73 367.44
  Q 157.27 364.27 154.40 351.18
  C 152.79 343.85 152.14 337.34 150.89 330.86
  Q 150.17 327.10 148.65 326.18
  Z
  M 264.28 327.69
  Q 262.74 328.59 261.98 332.35
  C 260.65 338.83 259.92 345.35 258.22 352.68
  Q 255.19 365.76 254.69 368.93
  Q 253.50 376.51 258.90 380.65
  C 267.05 386.92 273.07 378.58 276.49 372.30
  Q 284.20 358.08 287.62 342.89
  Q 288.72 338.01 288.38 335.47
  Q 288.30 334.82 288.12 334.61
  A 1.03 1.02 38.4 0 0 286.43 334.80
  C 285.70 336.23 284.24 341.74 281.45 342.18
  C 276.75 342.93 275.12 339.40 276.93 335.44
  C 278.51 331.94 280.60 328.62 279.41 326.70
  A 2.02 2.01 -30.1 0 0 276.75 326.00
  C 274.69 327.12 274.20 331.42 273.27 335.04
  C 272.22 339.16 266.09 338.79 265.23 334.44
  A 2.23 2.18 45.0 0 1 265.22 333.55
  L 266.03 328.90
  A 1.17 1.17 0.0 0 0 264.28 327.69
  Z"
/>
<ellipse fill="#000000" cx="0.00" cy="0.00" transform="translate(181.62,78.58) rotate(-87.7)" rx="9.11" ry="8.60"/>
<ellipse fill="#000000" cx="0.00" cy="0.00" transform="translate(256.10,78.39) rotate(-85.1)" rx="8.97" ry="8.55"/>
<path fill="#000000" d="
  M 217.60 132.55
  C 210.17 139.38 199.67 143.13 190.60 137.93
  C 186.26 135.43 188.43 129.13 193.25 130.45
  Q 198.08 131.78 198.62 131.92
  A 4.71 4.60 -40.3 0 0 200.33 132.04
  C 205.67 131.44 213.50 127.49 214.06 121.91
  A 2.23 2.23 0.0 0 0 212.74 119.65
  Q 205.81 116.61 201.57 109.97
  C 196.69 102.34 200.94 97.18 208.64 95.38
  C 216.22 93.61 227.38 93.47 233.92 98.42
  C 237.70 101.29 237.19 106.29 234.67 109.89
  Q 229.76 116.91 223.26 119.61
  A 1.08 1.04 86.5 0 0 222.63 120.35
  Q 221.98 123.07 222.89 124.38
  Q 227.64 131.29 237.05 131.96
  A 4.67 4.62 -50.1 0 0 238.53 131.82
  C 241.05 131.15 244.43 129.30 247.27 130.95
  A 2.04 2.00 89.0 0 1 247.99 131.66
  C 250.19 135.29 248.03 137.67 244.46 138.88
  C 235.05 142.10 226.13 139.21 218.51 132.54
  A 0.68 0.67 44.3 0 0 217.60 132.55
  Z"
/>
<rect fill="#000000" x="-14.13" y="-3.96" transform="translate(268.71,106.86) rotate(-14.3)" width="28.26" height="7.92" rx="3.81"/>
<rect fill="#000000" x="-13.94" y="-3.96" transform="translate(168.50,107.04) rotate(14.2)" width="27.88" height="7.92" rx="3.66"/>
<rect fill="#000000" x="-13.96" y="-4.00" transform="translate(168.18,122.79) rotate(-13.8)" width="27.92" height="8.00" rx="3.89"/>
<rect fill="#000000" x="-13.93" y="-3.96" transform="translate(269.03,122.57) rotate(13.3)" width="27.86" height="7.92" rx="3.84"/>
<path fill="#000000" d="
  M 276.67 259.08
  C 258.21 257.00 237.60 247.41 228.70 230.31
  C 225.21 223.61 224.20 215.08 227.16 208.05
  C 231.69 197.25 243.09 195.69 253.47 199.08
  C 264.64 202.73 273.43 205.45 284.45 201.59
  A 4.07 4.07 0.0 0 1 289.65 204.14
  L 289.70 204.29
  A 4.13 4.13 0.0 0 1 287.25 209.47
  C 275.14 214.02 263.99 211.73 251.92 207.37
  C 244.09 204.54 234.53 205.26 233.97 215.52
  C 233.23 229.21 245.81 239.66 257.47 245.06
  Q 266.79 249.39 277.39 250.66
  A 4.24 4.24 0.0 0 1 281.11 255.29
  L 281.09 255.51
  A 3.99 3.98 6.0 0 1 276.67 259.08
  Z"
/>
<path fill="#000000" d="
  M 152.27 255.51
  L 152.25 255.29
  A 4.24 4.24 0.0 0 1 155.97 250.67
  Q 166.56 249.39 175.87 245.06
  C 187.51 239.65 200.08 229.20 199.33 215.53
  C 198.76 205.27 189.21 204.56 181.39 207.39
  C 169.33 211.76 158.19 214.05 146.09 209.51
  A 4.13 4.13 0.0 0 1 143.64 204.34
  L 143.69 204.19
  A 4.07 4.06 -71.1 0 1 148.88 201.64
  C 159.89 205.49 168.68 202.77 179.83 199.11
  C 190.20 195.72 201.59 197.27 206.13 208.06
  C 209.09 215.08 208.09 223.60 204.60 230.30
  C 195.72 247.39 175.13 256.99 156.69 259.08
  A 3.98 3.98 0.0 0 1 152.27 255.51
  Z"
/>
<path fill="#000000" d="
  M 128.33 270.82
  Q 131.34 270.74 135.67 273.10
  C 156.28 284.36 167.36 308.38 171.98 330.43
  A 4.40 4.40 0.0 0 1 169.21 335.46
  L 168.92 335.57
  A 3.71 3.70 -20.7 0 1 164.16 333.42
  Q 163.90 332.73 161.97 325.26
  Q 157.67 308.61 147.69 294.84
  Q 139.68 283.79 127.06 278.46
  C 123.77 277.07 124.42 272.75 127.18 271.15
  A 2.46 2.41 28.4 0 1 128.33 270.82
  Z"
/>
</svg>
