<?xml version="1.0" encoding="UTF-8" standalone="no"?>
<!DOCTYPE svg PUBLIC "-//W3C//DTD SVG 1.1//EN" "http://www.w3.org/Graphics/SVG/1.1/DTD/svg11.dtd">
<svg xmlns="http://www.w3.org/2000/svg" version="1.1" viewBox="0.00 0.00 500.00 500.00">
<path fill="#000000" d="
  M 250.12 77.49
  Q 259.01 77.49 260.75 77.69
  C 268.54 78.60 275.97 78.89 283.37 80.08
  Q 334.07 88.24 375.12 119.40
  A 1.31 1.31 0.0 0 0 376.75 119.36
  Q 390.70 107.82 409.18 109.18
  Q 414.16 109.55 420.73 111.93
  C 431.36 115.79 440.14 124.91 444.66 135.12
  C 452.99 153.96 447.17 174.18 431.08 186.95
  A 0.79 0.79 0.0 0 0 430.87 187.92
  Q 441.33 208.85 445.65 232.52
  Q 445.78 233.25 447.23 242.02
  C 448.96 252.53 448.71 263.57 448.20 274.73
  C 447.96 280.05 446.93 285.05 445.91 291.73
  Q 445.34 295.42 443.23 303.04
  C 430.51 348.93 391.59 379.83 349.61 398.12
  C 317.86 411.97 284.43 418.90 249.99 418.89
  C 215.56 418.88 182.13 411.92 150.39 398.05
  C 108.43 379.73 69.53 348.80 56.84 302.90
  Q 54.74 295.28 54.17 291.59
  C 53.15 284.91 52.13 279.91 51.89 274.58
  C 51.39 263.42 51.15 252.38 52.89 241.88
  Q 54.34 233.11 54.47 232.38
  Q 58.81 208.71 69.29 187.79
  A 0.79 0.79 0.0 0 0 69.08 186.82
  C 53.00 174.04 47.19 153.81 55.53 134.98
  C 60.06 124.77 68.85 115.66 79.48 111.81
  Q 86.05 109.43 91.03 109.06
  Q 109.51 107.72 123.46 119.27
  A 1.31 1.31 0.0 0 0 125.09 119.31
  Q 166.16 88.18 216.86 80.06
  C 224.27 78.87 231.70 78.59 239.48 77.68
  Q 241.23 77.48 250.12 77.49
  Z
  M 249.82 401.67
  Q 265.66 401.69 272.98 400.60
  C 278.61 399.77 283.27 399.59 288.95 398.51
  Q 296.05 397.15 303.18 395.54
  Q 328.71 389.75 352.52 377.82
  C 375.82 366.14 397.72 349.62 412.26 328.56
  Q 422.28 314.05 427.37 295.36
  C 428.63 290.75 428.87 286.92 429.76 282.57
  Q 430.57 278.67 430.81 272.88
  Q 431.28 261.50 430.73 250.97
  C 430.45 245.61 429.08 238.47 428.30 234.29
  Q 424.58 214.32 414.80 194.53
  C 390.69 145.74 345.09 110.98 292.07 99.45
  C 286.99 98.35 281.23 97.10 275.29 96.45
  C 266.87 95.52 259.85 94.71 250.29 94.70
  C 240.72 94.68 233.70 95.47 225.27 96.37
  C 219.33 97.01 213.57 98.24 208.49 99.32
  C 155.43 110.69 109.73 145.31 85.47 194.03
  Q 75.63 213.79 71.85 233.75
  C 71.06 237.93 69.66 245.06 69.37 250.42
  Q 68.79 260.95 69.22 272.33
  Q 69.44 278.12 70.24 282.03
  C 71.12 286.38 71.35 290.21 72.59 294.82
  Q 77.63 313.53 87.60 328.07
  C 102.08 349.17 123.93 365.76 147.19 377.51
  Q 170.97 389.51 196.48 395.38
  Q 203.60 397.01 210.70 398.39
  C 216.38 399.49 221.04 399.68 226.66 400.53
  Q 233.98 401.64 249.82 401.67
  Z
  M 75.08 135.61
  Q 72.19 139.13 70.99 142.56
  Q 65.30 158.73 77.22 170.97
  A 0.81 0.80 38.8 0 0 78.48 170.83
  Q 85.11 160.18 93.12 150.41
  Q 101.14 140.64 110.28 132.05
  A 0.81 0.80 39.9 0 0 110.17 130.79
  Q 95.83 121.50 81.09 130.24
  Q 77.96 132.10 75.08 135.61
  Z
  M 425.07 135.66
  Q 422.19 132.15 419.06 130.29
  Q 404.31 121.54 389.97 130.83
  A 0.81 0.80 -39.9 0 0 389.86 132.09
  Q 399.01 140.68 407.02 150.46
  Q 415.03 160.23 421.66 170.89
  A 0.81 0.80 -38.8 0 0 422.92 171.02
  Q 434.84 158.79 429.16 142.61
  Q 427.95 139.18 425.07 135.66
  Z"
/>
<circle fill="#000000" cx="166.92" cy="213.98" r="19.11"/>
<circle fill="#000000" cx="333.12" cy="213.97" r="19.11"/>
<path fill="#000000" d="
  M 250.02 250.08
  C 255.71 250.08 261.14 250.69 264.87 251.27
  C 278.54 253.42 297.47 260.97 289.97 279.07
  C 284.78 291.61 272.00 300.99 259.60 306.41
  A 1.00 0.99 -10.7 0 0 259.01 307.27
  C 258.72 312.18 258.20 315.83 261.11 319.24
  C 271.54 331.47 287.87 339.15 303.27 331.33
  Q 306.33 329.77 307.57 329.62
  C 310.99 329.19 314.70 331.14 316.24 334.14
  Q 319.50 340.44 313.80 345.51
  A 4.52 4.48 11.5 0 1 312.64 346.27
  Q 301.79 351.22 292.17 351.86
  Q 287.36 352.18 279.77 350.55
  C 268.47 348.13 258.41 341.66 250.54 333.24
  Q 250.35 333.03 250.02 333.03
  Q 249.70 333.03 249.51 333.24
  C 241.64 341.66 231.58 348.13 220.28 350.55
  Q 212.69 352.18 207.88 351.86
  Q 198.26 351.22 187.41 346.27
  A 4.52 4.48 -11.5 0 1 186.25 345.51
  Q 180.55 340.44 183.81 334.14
  C 185.35 331.14 189.06 329.19 192.48 329.62
  Q 193.72 329.77 196.78 331.33
  C 212.18 339.15 228.51 331.47 238.94 319.24
  C 241.85 315.83 241.33 312.18 241.04 307.27
  A 1.00 0.99 10.7 0 0 240.45 306.41
  C 228.05 300.99 215.27 291.61 210.08 279.07
  C 202.58 260.97 221.51 253.42 235.18 251.27
  C 238.91 250.69 244.33 250.08 250.02 250.08
  Z"
/>
<rect fill="#000000" x="-31.11" y="-8.65" transform="translate(137.37,277.15) rotate(14.3)" width="62.22" height="17.30" rx="8.39"/>
<rect fill="#000000" x="-31.15" y="-8.67" transform="translate(362.68,277.18) rotate(-14.1)" width="62.30" height="17.34" rx="8.44"/>
<rect fill="#000000" x="-31.16" y="-8.65" transform="translate(137.38,312.79) rotate(-14.0)" width="62.32" height="17.30" rx="8.43"/>
<rect fill="#000000" x="-31.12" y="-8.68" transform="translate(362.68,312.77) rotate(14.1)" width="62.24" height="17.36" rx="8.45"/>
</svg>
